<svg height="25" viewBox="0 0 25 25" width="25" xmlns="http://www.w3.org/2000/svg" xmlns:xlink="http://www.w3.org/1999/xlink"><linearGradient id="a" gradientUnits="objectBoundingBox" x1=".5" x2=".5" y1="-.451" y2="1.462"><stop offset="0" stop-color="#e09b3d"/><stop offset=".3" stop-color="#c74c4d"/><stop offset=".6" stop-color="#c21975"/><stop offset="1" stop-color="#7024c4"/></linearGradient><linearGradient id="b" xlink:href="#a" y1="-1.396" y2="6.586"/><linearGradient id="c" xlink:href="#a" y1=".008" y2=".998"/><path d="m139.466 133a6.466 6.466 0 1 0 6.466 6.466 6.473 6.473 0 0 0 -6.466-6.466zm0 10.417a3.951 3.951 0 1 1 3.951-3.951 3.951 3.951 0 0 1 -3.951 3.951z" fill="url(#a)" transform="translate(-126.966 -126.966)"/><circle cx="1.549" cy="1.549" fill="url(#b)" r="1.549" transform="translate(17.429 4.533)"/><path d="m17.553 0h-10.105a7.456 7.456 0 0 0 -7.448 7.448v10.1a7.456 7.456 0 0 0 7.448 7.452h10.1a7.456 7.456 0 0 0 7.452-7.447v-10.105a7.456 7.456 0 0 0 -7.447-7.448zm4.933 17.553a4.933 4.933 0 0 1 -4.933 4.933h-10.105a4.933 4.933 0 0 1 -4.933-4.933v-10.105a4.933 4.933 0 0 1 4.933-4.933h10.1a4.933 4.933 0 0 1 4.933 4.933v10.1z" fill="url(#c)"/></svg>