<svg xmlns="http://www.w3.org/2000/svg" width="24.998" height="24.998"><circle cx="12.499" cy="12.499" r="12.499" fill="#4d76a1" data-name="Group 1"/><path data-name="Path 28" d="M12.027 17.981h.981a.828.828 0 0 0 .448-.2.718.718 0 0 0 .135-.431s-.019-1.316.592-1.51 1.376 1.272 2.2 1.835a1.554 1.554 0 0 0 1.091.332l2.192-.031s1.147-.071.6-.972a7.324 7.324 0 0 0-1.63-1.886c-1.374-1.276-1.19-1.069.465-3.276 1.008-1.344 1.411-2.164 1.285-2.516-.12-.335-.862-.246-.862-.246l-2.466.022a.56.56 0 0 0-.319.056.692.692 0 0 0-.218.265 14.289 14.289 0 0 1-.912 1.924c-1.1 1.866-1.538 1.964-1.718 1.849-.418-.27-.313-1.085-.313-1.664 0-1.808.274-2.562-.534-2.757a4.214 4.214 0 0 0-1.152-.115 5.319 5.319 0 0 0-2.048.209c-.281.137-.5.444-.365.461a1.108 1.108 0 0 1 .728.366 2.381 2.381 0 0 1 .244 1.117s.145 2.129-.339 2.393c-.333.181-.789-.189-1.769-1.882a15.737 15.737 0 0 1-.885-1.822.733.733 0 0 0-.2-.275 1.023 1.023 0 0 0-.379-.153l-2.345.015s-.352.01-.481.163c-.115.136-.009.418-.009.418a26.686 26.686 0 0 0 3.915 6.46 5.631 5.631 0 0 0 4.071 1.854z" fill="#fff" fill-rule="evenodd"/></svg>