<svg height="25" viewBox="0 0 25 25" width="25" xmlns="http://www.w3.org/2000/svg"><path d="m9 4h13v21h-13z" fill="#fff"/><path d="m21.633 0h-18.262a3.369 3.369 0 0 0 -3.371 3.369v18.262a3.369 3.369 0 0 0 3.371 3.369h9.007l.015-8.934h-2.321a.548.548 0 0 1 -.548-.546l-.011-2.88a.548.548 0 0 1 .548-.55h2.317v-2.781c0-3.229 1.972-4.987 4.853-4.987h2.364a.548.548 0 0 1 .548.548v2.43a.548.548 0 0 1 -.547.548h-1.452c-1.567 0-1.87.744-1.87 1.837v2.409h3.442a.548.548 0 0 1 .544.612l-.341 2.88a.548.548 0 0 1 -.544.483h-3.085l-.016 8.931h5.359a3.369 3.369 0 0 0 3.367-3.368v-18.263a3.369 3.369 0 0 0 -3.367-3.369z" fill="#475993" transform="translate(-.002)"/></svg>